<svg xmlns="http://www.w3.org/2000/svg" width="24" height="24" viewBox="0 0 24 24">
  <g id="mic_black_24dp" transform="translate(0.104)">
    <g id="Group_1403" data-name="Group 1403">
      <rect id="Rectangle_332" data-name="Rectangle 332" width="24" height="24" transform="translate(-0.104)" fill="none"/>
      <rect id="Rectangle_333" data-name="Rectangle 333" width="24" height="24" transform="translate(-0.104)" fill="none"/>
      <rect id="Rectangle_334" data-name="Rectangle 334" width="24" height="24" transform="translate(-0.104)" fill="none"/>
    </g>
    <g id="Group_1405" data-name="Group 1405" transform="translate(5.999 2)">
      <g id="Group_1404" data-name="Group 1404">
        <path id="Path_6619" data-name="Path 6619" d="M12,14a3,3,0,0,0,3-3V5A3,3,0,0,0,9,5v6A3,3,0,0,0,12,14Z" transform="translate(-5 -2)" fill="#ff951d"/>
        <path id="Path_6620" data-name="Path 6620" d="M17,11A5,5,0,0,1,7,11H5a7,7,0,0,0,6,6.92V21h2V17.92A7,7,0,0,0,19,11Z" transform="translate(-5 -2)" fill="#ff951d"/>
      </g>
    </g>
  </g>
</svg>
