<svg id="price_change_black_24dp" xmlns="http://www.w3.org/2000/svg" width="24" height="24" viewBox="0 0 24 24">
  <g id="Group_1269" data-name="Group 1269">
    <path id="Path_6431" data-name="Path 6431" d="M0,0H24V24H0Z" fill="none"/>
  </g>
  <g id="Group_1270" data-name="Group 1270">
    <path id="Path_6432" data-name="Path 6432" d="M20,4H4A1.985,1.985,0,0,0,2.01,6L2,18a1.993,1.993,0,0,0,2,2H20a1.993,1.993,0,0,0,2-2V6A1.993,1.993,0,0,0,20,4Zm-9,6H8v1h3a1,1,0,0,1,1,1v3a1,1,0,0,1-1,1H10a1,1,0,0,1-1,1H9a1,1,0,0,1-1-1H7a1,1,0,0,1-1-1H6a1,1,0,0,1,1-1h3V13H7a1,1,0,0,1-1-1V9A1,1,0,0,1,7,8H8A1,1,0,0,1,9,7H9a1,1,0,0,1,1,1h1a1,1,0,0,1,1,1h0A1,1,0,0,1,11,10Zm4.65,5.9L14,14.25h4L16.35,15.9A.5.5,0,0,1,15.65,15.9ZM14,10l1.65-1.65a.5.5,0,0,1,.71,0L18,10Z" fill="#fff"/>
  </g>
</svg>
