<svg id="noun-money-39956" xmlns="http://www.w3.org/2000/svg" width="13.934" height="14.08" viewBox="0 0 13.934 14.08">
  <path id="Path_2469" data-name="Path 2469" d="M238.8,159.671V157.59c0-1.425-2.64-2.58-5.9-2.58s-5.9,1.155-5.9,2.58V159.8a1.854,1.854,0,0,0,1.032,1.457v1.052c-1.306.473-2.138,1.188-2.138,1.988v2.211c0,1.426,2.641,2.58,5.9,2.58s5.9-1.155,5.9-2.58v-1.182c1.306-.473,2.138-1.188,2.138-1.988v-2.212a1.855,1.855,0,0,0-1.033-1.457Zm-5.9-4c3.2,0,5.234,1.135,5.234,1.916s-2.039,1.917-5.234,1.917-5.234-1.135-5.234-1.917S229.708,155.674,232.9,155.674Zm4.571,9.025c-.14.051-.287.1-.442.147v-1.524q.229-.062.442-.132Zm-.884.265q-.213.051-.442.094V163.52c.151-.027.3-.057.442-.089Zm-.885.167q-.25.036-.516.063v-1.545c.175-.016.347-.036.516-.059Zm-.958.1q-.288.018-.589.023V163.7q.3,0,.589-.022Zm-1.032.023c-.2,0-.4-.011-.59-.023v-1.547q.291.017.59.022Zm-1.032-.058q-.265-.027-.516-.063V163.59c.169.023.341.042.516.059Zm-.958-.136c-.152-.029-.3-.06-.442-.094v-1.533c.145.032.291.062.442.089Zm-.885-.213c-.155-.046-.3-.1-.442-.147v-1.509q.214.07.442.132Zm-.884-.329a4.765,4.765,0,0,1-.442-.228v-1.457c.139.069.287.135.442.2Zm-.885-.547a.917.917,0,0,1-.368-.629v-1.026a3.419,3.419,0,0,0,.368.271Zm-.589-4.676q.209.1.442.2v1.488a4.749,4.749,0,0,1-.442-.228Zm.884.358q.214.07.442.132v1.524c-.155-.046-.3-.1-.442-.147Zm.885.241c.145.032.291.062.442.089v1.538c-.152-.029-.3-.06-.442-.094Zm.885.16c.169.023.341.042.516.059v1.545q-.266-.027-.516-.063Zm.958.091q.291.017.589.022v1.548q-.3-.005-.589-.023Zm1.032.022q.3,0,.59-.022v1.547q-.288.018-.59.023Zm1.033-.055c.175-.016.347-.036.516-.059v1.541c-.167.025-.339.045-.516.063Zm.958-.13c.151-.027.3-.057.442-.089v1.533c-.142.034-.29.065-.442.094Zm.885-.2q.229-.062.442-.132v1.509c-.14.051-.287.1-.442.147Zm.885-.293c.155-.062.3-.128.442-.2v1.457a4.671,4.671,0,0,1-.442.228Zm.885-.443a3.484,3.484,0,0,0,.368-.271V159.8a.918.918,0,0,1-.368.629Zm-10.1.755v-1.026a3.463,3.463,0,0,0,.369.271v1.384A.916.916,0,0,1,227.67,159.8Zm.369,3.224v.315c0,1.425,2.64,2.58,5.9,2.58.192,0,.381,0,.568-.013a11.393,11.393,0,0,1-2.706.307c-3.2,0-5.234-1.135-5.234-1.916,0-.4.532-.888,1.475-1.273Zm-1.475,3.484v-1.025a3.461,3.461,0,0,0,.369.271v1.384a.92.92,0,0,1-.369-.63Zm.811.948V166q.209.1.442.2v1.487a4.716,4.716,0,0,1-.442-.228Zm.884.41V166.36q.214.07.442.132v1.523c-.155-.046-.3-.1-.442-.147Zm.884.265V166.6c.145.032.291.062.442.089v1.538C229.434,168.2,229.286,168.167,229.144,168.133Zm.885.167V166.76c.169.023.341.042.516.059v1.545Q230.279,168.338,230.029,168.3Zm.958.1v-1.547q.291.017.589.022v1.548q-.3,0-.589-.023Zm1.032.023v-1.548q.3-.005.59-.023V168.4Q232.322,168.417,232.019,168.422Zm1.033-.058v-1.545c.175-.016.347-.036.516-.059V168.3q-.25.036-.516.063Zm.958-.137v-1.538c.151-.027.3-.057.442-.089v1.533C234.31,168.167,234.162,168.2,234.01,168.227Zm.885-.213v-1.523q.229-.062.442-.132v1.508c-.14.051-.286.1-.442.147Zm.885-.329V166.2c.155-.062.3-.128.442-.2v1.457a4.758,4.758,0,0,1-.442.228Zm1.253-1.175a.918.918,0,0,1-.368.629v-1.383c.1-.064.194-.131.282-.2l.087-.023v.977Zm.884-1.994v-1.488c.155-.062.3-.128.442-.2v1.457a4.693,4.693,0,0,1-.442.228Zm1.254-1.176a.918.918,0,0,1-.369.629v-1.384a3.442,3.442,0,0,0,.369-.271Zm-5.234-.295a7.859,7.859,0,0,1-4.86-1.283,11.179,11.179,0,0,0,3.827.62c2.8,0,5.147-.858,5.745-2a1.078,1.078,0,0,1,.521.751c0,.781-2.039,1.917-5.234,1.917Z" transform="translate(-225.9 -155.01)" fill="#e3e3e3"/>
</svg>
