<svg id="paid_black_24dp" xmlns="http://www.w3.org/2000/svg" width="18" height="18" viewBox="0 0 18 18">
  <g id="Group_1406" data-name="Group 1406">
    <rect id="Rectangle_335" data-name="Rectangle 335" width="18" height="18" fill="none"/>
  </g>
  <g id="Group_1407" data-name="Group 1407" transform="translate(1.227 1.227)">
    <path id="Path_6623" data-name="Path 6623" d="M9.773,2a7.773,7.773,0,1,0,7.773,7.773A7.776,7.776,0,0,0,9.773,2Zm0,13.992a6.219,6.219,0,1,1,6.219-6.219A6.227,6.227,0,0,1,9.773,15.992Zm.692-6.918C9.082,8.615,8.413,8.328,8.413,7.6c0-.793.863-1.081,1.407-1.081A1.5,1.5,0,0,1,11.3,7.558l1.228-.521A2.663,2.663,0,0,0,10.457,5.3V4.332H9.1v.979a2.4,2.4,0,0,0-2.037,2.3c0,1.765,1.749,2.262,2.6,2.573,1.228.435,1.772.832,1.772,1.578,0,.878-.816,1.252-1.539,1.252A2.053,2.053,0,0,1,8.032,11.39l-1.29.521a3.138,3.138,0,0,0,2.348,2.3v1h1.36v-.964a2.577,2.577,0,0,0,2.348-2.5C12.805,10.667,12.331,9.719,10.465,9.074Z" transform="translate(-2 -2)" fill="gray"/>
  </g>
</svg>
