<svg xmlns="http://www.w3.org/2000/svg" xmlns:xlink="http://www.w3.org/1999/xlink" width="29.007" height="27.684" viewBox="0 0 29.007 27.684">
  <defs>
    <radialGradient id="radial-gradient" cx="0.17" cy="1.012" r="1.096" gradientTransform="translate(0.023) scale(0.954 1)" gradientUnits="objectBoundingBox">
      <stop offset="0.355" stop-color="#ffc200"/>
      <stop offset="0.508" stop-color="#ffbc06"/>
      <stop offset="0.725" stop-color="#ffae18"/>
      <stop offset="0.978" stop-color="#ff9736"/>
      <stop offset="1" stop-color="#ff953a"/>
    </radialGradient>
  </defs>
  <path id="Path_6586" data-name="Path 6586" d="M104.7,98.751c.127.873-.413,1.262-1.2.868l-6.55-3.3a3.636,3.636,0,0,0-2.873-.014L87.5,99.549c-.791.389-1.329,0-1.195-.88l1.115-7.248a3.647,3.647,0,0,0-.877-2.736l-5.118-5.255c-.615-.635-.409-1.267.464-1.409l7.238-1.18a3.642,3.642,0,0,0,2.332-1.68l3.418-6.49c.411-.781,1.077-.776,1.481.007L99.714,79.2a3.637,3.637,0,0,0,2.317,1.7l7.228,1.243c.873.151,1.075.788.454,1.413l-5.166,5.212a3.663,3.663,0,0,0-.9,2.728Z" transform="translate(-81.067 -72.088)" fill="url(#radial-gradient)"/>
</svg>
